<svg xmlns:xlink="http://www.w3.org/1999/xlink" xmlns="http://www.w3.org/2000/svg" viewBox="0 0 63.14 155" class="xl:h-6 xl:w-9 mc:h-7 mc:w-9 h-5 w-8 xl:me-2 sm:me-1 rtl:xl:ml-2 rtl:sm:ml-1 text-mw-blue" width="63.14"  height="155" ><defs><style>.bodyw__cls-1{fill:none;stroke:#20409A;stroke-linecap:round;stroke-linejoin:round;stroke-width:6}</style></defs><g><path d="M31.57 2.5c5.23 0 7.63 4.24 7.63 9.47 0 2.31 5.13 12.36-7.63 12.36M31.57 2.5c-5.23 0-7.63 4.24-7.63 9.47 0 2.31-5.13 12.36 7.63 12.36M60.64 79.73c0 27.25-5.6-30.07-29.07-30.07S2.5 106.98 2.5 79.73s13.01-49.34 29.07-49.34 29.07 22.09 29.07 49.34Z" class="bodyw__cls-1" stroke="#20409A" fill="none" stroke-width="6px"></path><path d="M52.22 140.27c0 45.35-20.65-50.05-20.65-50.05s-20.65 95.4-20.65 50.05 9.24-82.11 20.65-82.11 20.65 36.76 20.65 82.11Z" class="bodyw__cls-1" stroke="#20409A" fill="none" stroke-width="6px"></path></g></svg>